<svg version="1.2" xmlns="http://www.w3.org/2000/svg" viewBox="0 0 1000 745" width="1000" height="745">
	<title>3582363-ai</title>
	<style>
		.s0 { fill: #ebebeb } 
		.s1 { fill: #e6e6e6 } 
		.s2 { fill: #f0f0f0 } 
		.s3 { fill: #fafafa } 
		.s4 { fill: #ffffff } 
		.s5 { opacity: .6;fill: #ebebeb } 
		.s6 { fill: #e0e0e0 } 
		.s7 { fill: #f5f5f5 } 
		.s8 { fill: #407bff } 
		.s9 { opacity: .1;fill: #263238 } 
		.s10 { fill: #7f3e3b } 
		.s11 { opacity: .2;fill: #000000 } 
		.s12 { fill: #263238 } 
		.s13 { fill: #630f0f } 
		.s14 { fill: #000000 } 
		.s15 { opacity: .3;fill: #000000 } 
	</style>
	<g id="Background Complete">
		<g id="&lt;Group&gt;">
			<path id="&lt;Path&gt;" class="s0" d="m1000 655.3h-1000v-0.5h1000z"/>
			<path id="&lt;Path&gt;" class="s0" d="m833.6 687h66.2v0.5h-66.2z"/>
			<path id="&lt;Path&gt;" class="s0" d="m645.1 692.4h17.3v0.5h-17.3z"/>
			<path id="&lt;Path&gt;" class="s0" d="m793.2 668.4h38.4v0.5h-38.4z"/>
			<path id="&lt;Path&gt;" class="s0" d="m104.9 671.8h86.4v0.5h-86.4z"/>
			<path id="&lt;Path&gt;" class="s0" d="m209.1 671.8h12.7v0.5h-12.7z"/>
			<path id="&lt;Path&gt;" class="s0" d="m262.9 680.2h187.4v0.5h-187.4z"/>
			<path id="&lt;Compound Path&gt;" fill-rule="evenodd" class="s0" d="m474 565.6h-386.2c-6.3 0-11.4-5.1-11.4-11.4v-542.9c0-6.3 5.1-11.4 11.4-11.4h386.2c6.3 0 11.4 5.1 11.4 11.4v542.9c0 6.3-5.1 11.4-11.4 11.4zm-386.2-565.2c-6 0-10.9 4.9-10.9 10.9v542.9c0 6 4.9 10.9 10.9 10.9h386.2c6 0 10.9-4.9 10.9-10.9v-542.9c0-6-4.9-10.9-10.9-10.9z"/>
			<path id="&lt;Compound Path&gt;" fill-rule="evenodd" class="s0" d="m906.6 565.6h-386.2c-6.3 0-11.4-5.1-11.4-11.4v-542.9c0-6.3 5.1-11.4 11.4-11.4h386.2c6.3 0 11.4 5.1 11.4 11.4v542.9c0 6.3-5.1 11.4-11.4 11.4zm-386.2-565.2c-6 0-10.9 4.9-10.9 10.9v542.9c0 6 4.9 10.9 10.9 10.9h386.2c6 0 10.9-4.9 10.9-10.9v-542.9c0-6-4.9-10.9-10.9-10.9z"/>
		</g>
		<g id="&lt;Group&gt;">
			<g id="&lt;Group&gt;">
				<path id="&lt;Path&gt;" class="s1" d="m786.1 315.4h-583.5v-273.1h583.5z"/>
				<path id="&lt;Path&gt;" class="s2" d="m794.9 315.4h-588.2v-273.1h588.2z"/>
				<path id="&lt;Path&gt;" class="s1" d="m786.1 315.4h-583.5v13.9h583.5z"/>
				<path id="&lt;Path&gt;" class="s2" d="m809.6 315.4h-588.3v13.9h588.3z"/>
				<path id="&lt;Path&gt;" class="s3" d="m219 303.1v-248.5h563.6v248.5z"/>
				<path id="&lt;Path&gt;" class="s4" d="m279.5 303.1l34.2-248.5h53.5l-34.3 248.5z"/>
				<path id="&lt;Path&gt;" class="s2" d="m224.7 290.8c-0.5 0-0.9-0.4-0.9-0.9v-227.3c0-0.4 0.4-0.8 0.9-0.8 0.5 0 0.9 0.4 0.9 0.8v227.3c0 0.5-0.4 0.9-0.9 0.9z"/>
				<path id="&lt;Path&gt;" class="s4" d="m344.4 303.1l34.3-248.5h20.8l-34.3 248.5z"/>
				<path id="&lt;Path&gt;" class="s1" d="m781.1 303.1v-248.5h1.5v248.5z"/>
				<path id="&lt;Path&gt;" class="s5" d="m797.8 73.2h-583.5l-1.2-13.8h583.6z"/>
				<path id="&lt;Path&gt;" class="s5" d="m797.8 95.8h-583.5l-1.2-13.8h583.6z"/>
				<path id="&lt;Path&gt;" class="s5" d="m797.8 118.4h-583.5l-1.2-13.8h583.6z"/>
				<path id="&lt;Path&gt;" class="s5" d="m797.8 141h-583.5l-1.2-13.8h583.6z"/>
				<path id="&lt;Path&gt;" class="s5" d="m797.8 163.6h-583.5l-1.2-13.8h583.6z"/>
				<path id="&lt;Path&gt;" class="s5" d="m797.8 186.1h-583.5l-1.2-13.7h583.6z"/>
			</g>
			<g id="&lt;Group&gt;">
				<g id="&lt;Group&gt;">
					<path id="&lt;Path&gt;" class="s1" d="m878 654.8h-89.1v-270.8h89.1z"/>
					<path id="&lt;Path&gt;" class="s3" d="m854.2 654.8h23.8v-37.4h-48.7z"/>
					<path id="&lt;Path&gt;" class="s1" d="m635.2 654.8h-89.1v-270.8h89.1z"/>
					<path id="&lt;Path&gt;" class="s3" d="m878 641.9h-263.6v-257.9h263.6z"/>
					<path id="&lt;Path&gt;" class="s3" d="m638.2 654.8h-23.8v-37.4h48.7z"/>
					<path id="&lt;Path&gt;" class="s2" d="m859.6 544.7h-226.7v-64.6h226.7z"/>
					<path id="&lt;Path&gt;" class="s2" d="m859.6 623h-226.7v-64.5h226.7z"/>
					<path id="&lt;Path&gt;" class="s3" d="m814.6 487h-136.8c-5.1 0-9.3-4.2-9.3-9.3v-3.2h155.4v3.2c0 5.1-4.2 9.3-9.3 9.3z"/>
					<path id="&lt;Path&gt;" class="s2" d="m859.6 466.3h-226.7v-64.5h226.7z"/>
					<path id="&lt;Path&gt;" class="s3" d="m814.6 408.7h-136.8c-5.1 0-9.3-4.2-9.3-9.4v-3.1h155.4v3.1c0 5.2-4.2 9.4-9.3 9.4z"/>
					<path id="&lt;Path&gt;" class="s3" d="m814.6 565.4h-136.8c-5.1 0-9.3-4.2-9.3-9.4v-3.1h155.4v3.1c0 5.2-4.2 9.4-9.3 9.4z"/>
				</g>
			</g>
			<g id="&lt;Group&gt;">
				<path id="&lt;Path&gt;" class="s1" d="m106.8 441.7c5-14.2 44.1 5.2 60 28.8 10.6 15.7 17 32.5 20 55-0.3-25.7-0.7-53.3-1.1-79.4-3.2-6.5-10.6-21.5-15.8-33.4-17.6-39.6-59.5-54.4-73.9-79.4-19-32.8-18.9-82-2.7-99.7 14-15.5 60.4 88.8 65.6 100.5 18 40.1 23.2 69.8 26.6 98.6-0.4-24.5-0.8-47-1.1-64.3-1-56.6-2.2-74.8-2.8-80.4-1.9-2.8-4.2-5.9-5.5-7.7-11.2-14.4-36.2-31.6-48.6-52.6-18.2-30.7-15.2-67.4-2.5-81.1 13.3-14.3 36.9 19.5 49.4 53 12.5 33.4 7.2 65.5 10.7 93.3 0.7 5.4 1.5 26.2 2.2 54.9 3.8-30.9 11.4-51.6 25.4-70.9 17.2-23.8 32.1-52.7 46.3-48.9 14.2 3.7 6.5 41.9-4.7 68.8-10 23.9-59.4 47.8-66.6 67 0.8 38.9 1.6 88.3 2.1 134.2 3.9-23.7 1.2-25.7 17.2-62 9.5-21.6 48.3-48.3 53-33.4 4.5 14.5-2.4 42.9-17.1 62.5-11.8 15.9-38.1 15.8-44.2 25.7-1.4 2.3-6.1 11.1-8.8 16.1 0.7 56.1 1 105.6 0.6 122.5l-2.5 0.2c0.1-4.4-0.2-32.9-0.7-70.7-6.4-20.1-49.3-31.8-62.6-52.7-13.8-21.9-23.8-47.4-17.9-64.5z"/>
				<g id="&lt;Group&gt;">
					<path id="&lt;Path&gt;" class="s2" d="m147.2 654.8h82.4c4.5 0 8.4-3.2 9.3-7.6l5.8-28.8h-112.6l5.8 28.8c0.9 4.4 4.8 7.6 9.3 7.6z"/>
					<path id="&lt;Path&gt;" class="s2" d="m129.7 629.6h117.4c2.8 0 5.2-2.2 5.5-5l2.4-21.3c0.3-3.2-2.2-6.1-5.5-6.1h-122.2c-3.3 0-5.8 2.9-5.5 6.1l2.4 21.3c0.3 2.8 2.7 5 5.5 5z"/>
				</g>
			</g>
			<g id="&lt;Group&gt;">
				<g id="&lt;Group&gt;">
					<path id="&lt;Path&gt;" class="s6" d="m355.7 654.8h-70.4v-129.6h70.4z"/>
					<path id="&lt;Path&gt;" class="s1" d="m535.2 654.8h-235.8l-24.8-175.8h235.8z"/>
					<path id="&lt;Path&gt;" class="s2" d="m569.6 654.8h-260.9l-24.7-175.8h260.8z"/>
					<path id="&lt;Path&gt;" class="s4" d="m334.3 627.3l-20.9-120.8h205.9l20.8 120.8z"/>
					<path id="&lt;Path&gt;" class="s3" d="m422.7 627.3l-69.9-120.8h21.9l70 120.8z"/>
					<path id="&lt;Path&gt;" class="s3" d="m454 627.3l-70-120.8h37.4l70 120.8z"/>
				</g>
			</g>
		</g>
	</g>
	<g id="Shadow">
		<path id="&lt;Path&gt; 280 " class="s7" d="m887.8 722.5c0 12.5-173.6 22.6-387.8 22.6-214.2 0-387.8-10.1-387.8-22.6 0-12.5 173.6-22.7 387.8-22.7 214.2 0 387.8 10.2 387.8 22.7z"/>
	</g>
	<g id="Warning">
		<g id="&lt;Group&gt;">
			<g id="&lt;Group&gt;">
				<path id="&lt;Path&gt;" class="s8" d="m154.5 333.1c-0.4 0-0.8-0.4-0.8-0.8l-4.5-53.4c0-0.5 0.3-0.9 0.8-0.9 0.5-0.1 0.9 0.3 0.9 0.7l4.5 53.4c0 0.5-0.3 0.9-0.8 1q0 0-0.1 0z"/>
				<path id="&lt;Path&gt;" class="s8" d="m157.2 364.8c-0.5 0-0.8-0.4-0.9-0.8l-1.3-16.2c-0.1-0.4 0.3-0.8 0.8-0.9 0.4 0 0.8 0.3 0.9 0.8l1.3 16.2c0.1 0.4-0.3 0.8-0.8 0.9q0 0 0 0z"/>
				<g id="&lt;Group&gt;">
					<path id="&lt;Path&gt;" class="s4" d="m607.1 516.7h-412.9c-10.6 0-19.9-8.6-20.8-19.1l-23.2-279.6c-0.9-10.5 7-19.1 17.5-19.1h413c10.5 0 19.8 8.6 20.7 19.1l23.3 279.6c0.9 10.5-7.1 19.1-17.6 19.1z"/>
					<path id="&lt;Compound Path&gt;" fill-rule="evenodd" class="s8" d="m607.1 517.5h-412.9c-11 0-20.7-8.9-21.6-19.8l-23.2-279.6c-0.5-5.3 1.2-10.4 4.7-14.2 3.5-3.7 8.3-5.8 13.6-5.8h413c10.9 0 20.6 8.9 21.5 19.9l23.3 279.5c0.4 5.4-1.3 10.4-4.8 14.2-3.4 3.8-8.3 5.8-13.6 5.8zm-439.4-317.8c-4.8 0-9.3 1.9-12.4 5.3-3.2 3.5-4.8 8.1-4.4 13l23.3 279.5c0.9 10.2 9.8 18.4 20 18.4h412.9c4.9 0 9.3-1.9 12.5-5.3 3.2-3.5 4.7-8.1 4.3-12.9l-23.3-279.6c-0.8-10.2-9.8-18.4-19.9-18.4z"/>
				</g>
				<path id="&lt;Path&gt;" class="s8" d="m580.7 198.9h-413c-10.5 0-18.4 8.6-17.5 19.1h451.2c-0.9-10.5-10.2-19.1-20.7-19.1z"/>
				<g id="&lt;Group&gt;">
					<path id="&lt;Path&gt;" class="s4" d="m177.4 208.5c0.2 2.2-1.5 4.1-3.8 4.1-2.3 0-4.3-1.9-4.5-4.1-0.2-2.3 1.5-4.2 3.8-4.2 2.3 0 4.3 1.9 4.5 4.2z"/>
					<path id="&lt;Path&gt;" class="s4" d="m194.2 208.5c0.2 2.2-1.5 4.1-3.8 4.1-2.3 0-4.3-1.9-4.5-4.1-0.2-2.3 1.5-4.2 3.8-4.2 2.3 0 4.3 1.9 4.5 4.2z"/>
					<path id="&lt;Path&gt;" class="s4" d="m211 208.5c0.2 2.2-1.5 4.1-3.8 4.1-2.3 0-4.3-1.9-4.5-4.1-0.2-2.3 1.5-4.2 3.8-4.2 2.3 0 4.3 1.9 4.5 4.2z"/>
				</g>
			</g>
			<path id="&lt;Path&gt;" class="s2" d="m571.3 480.1h-347.4c-8.4 0-15.8-6.8-16.5-15.2l-16.2-195c-0.7-8.4 5.6-15.2 13.9-15.2h347.4c8.4 0 15.8 6.8 16.5 15.2l16.2 195c0.7 8.4-5.6 15.2-13.9 15.2z"/>
			<path id="&lt;Path&gt;" class="s9" d="m463.8 288.8l-107.6 129.6c-14.7 17.8-5.4 44.8 17.2 49.7l174.5 37.8c24.2 5.2 44.3-18.6 35.1-41.5l-66.9-167.4c-8.7-21.6-37.3-26.1-52.3-8.2z"/>
			<path id="&lt;Path&gt;" class="s9" d="m224.3 307l-37.5 100.9c-5 13.5 5.9 27.5 20.2 26.1l109.4-10.7c15.4-1.5 22.9-19.4 13.3-31.5l-72-90.2c-9.4-11.8-28.1-8.8-33.4 5.4z"/>
			<g id="&lt;Group&gt;">
				<path id="&lt;Path&gt;" class="s8" d="m501 256.2l-100.6 146.1c-13.7 19.9-1.6 47.2 22.4 50.4l184.9 24.6c25.6 3.4 44.7-23.2 33.3-46.4l-84.4-170.7c-10.9-22.1-41.6-24.4-55.6-4z"/>
				<path id="&lt;Path&gt;" class="s4" d="m427.1 439.6c-6.7-0.9-12.5-5.1-15.6-11.3-3.1-6.2-2.7-13.1 0.9-18.4l100.9-146.5c3.7-5.3 9.9-7.9 16.6-7 6.7 0.9 12.6 5.1 15.6 11.3l84.6 171.1c3 6.2 2.7 13.1-1 18.4-3.6 5.3-9.8 8-16.6 7.1z"/>
				<g id="&lt;Group&gt;">
					<path id="&lt;Compound Path&gt;" class="s8" d="m521.3 308.1l11.8 1.6c7.6 1 13.4 7.9 13 15.4l-0.8 15.4q0 0.8-0.2 1.6l-8.4 46.3c-1.2 6.7-7.3 11-14.2 10.1-6.9-0.9-12.5-6.8-13-13.7l-3.4-47.9q0-0.8 0-1.6l0.8-15.4c0.4-7.5 6.8-12.8 14.4-11.8zm-0.9 103.2l3.2 0.4c6.7 0.9 12 7.1 11.6 13.8-0.3 6.7-6.1 11.4-12.9 10.4l-3.2-0.4c-6.8-0.9-12-7-11.6-13.7 0.3-6.7 6.1-11.4 12.9-10.5z"/>
				</g>
			</g>
			<g id="&lt;Group&gt;">
				<path id="&lt;Path&gt;" class="s8" d="m263 278.5l-27.6 104.8c-3.7 13.8 8.4 26.8 22.5 24l107.2-20.9c15-2.9 20.9-21.3 10.3-32.5l-79.5-83.8c-10.5-11.1-29-6.3-32.9 8.4z"/>
				<path id="&lt;Path&gt;" class="s4" d="m257.7 398.8c-3.9 0.8-7.9-0.6-10.8-3.6-2.9-3.1-4.1-7.2-3-11l27.6-105c1.1-3.8 4-6.5 7.9-7.3 3.9-0.8 7.9 0.6 10.8 3.7l79.7 84c2.9 3.1 4.1 7.2 3.1 11-1.1 3.8-4 6.5-7.9 7.3z"/>
				<g id="&lt;Group&gt;">
					<path id="&lt;Compound Path&gt;" class="s8" d="m284.6 303.9l6.8-1.4c4.4-0.8 8.9 2.1 10.2 6.6l2.5 9.1q0.1 0.5 0.2 1l4.3 28.7c0.6 4.2-2 7.9-6 8.6-4 0.8-8.2-1.6-9.8-5.5l-11.1-27.4q-0.2-0.5-0.3-1l-2.6-9.1c-1.2-4.5 1.4-8.8 5.8-9.6zm19.3 60.5l1.8-0.3c4-0.8 8 1.8 9.1 5.8 1.1 4-1.2 7.8-5.1 8.6l-1.8 0.4c-4 0.7-8-1.9-9.1-5.9-1.1-4 1.2-7.8 5.1-8.6z"/>
				</g>
			</g>
		</g>
	</g>
	<g id="Character">
		<g id="&lt;Group&gt;">
			<g id="&lt;Group&gt;">
				<path id="&lt;Path&gt;" class="s10" d="m776.7 302.1l-15.5 5 12.5 14.8c0 0 5.9-5 9.1-10.6 1.3-2.4 0.5-5.4-1.8-6.7z"/>
				<path id="&lt;Path&gt;" class="s10" d="m754.1 319.2l9.3 11.3 10.3-8.6-12.5-14.8z"/>
			</g>
			<g id="&lt;Group&gt;">
				<g id="&lt;Group&gt;">
					<path id="&lt;Path&gt;" class="s11" d=""/>
				</g>
			</g>
			<path id="&lt;Path&gt;" class="s10" d="m781.7 181.4c3.8 10.4 7.3 20.8 10.6 31.3 3.2 10.6 6.3 21.1 9 32.2l0.9 4.3 0.5 2.2 0.2 1.1 0.1 0.3v0.4l0.1 0.8c0.6 4.6 0.1 8.1-0.5 11.4-1.3 6.6-3.4 12.1-5.8 17.5-4.7 10.7-10.4 20.3-17.1 29.6l-10.4-5.8c3.7-9.9 7.3-20.2 10.1-30.1 1.3-4.9 2.4-9.9 2.7-14.2 0.2-2.1 0.1-4-0.2-4.9l-0.9-3.1-1.1-3.7c-3.1-10.1-6.7-20.3-10.3-30.6-3.5-10.2-7-20.6-10.4-30.8z"/>
			<path id="&lt;Path&gt;" class="s12" d="m695.4 119.5c0.2 1.2-0.2 2.4-1 2.6-0.8 0.2-1.7-0.6-2-1.9-0.2-1.2 0.2-2.4 1-2.6 0.8-0.2 1.7 0.6 2 1.9z"/>
			<path id="&lt;Path&gt;" class="s13" d="m695.3 121.9c0 0-1.3 7.9-3.6 12.1 2.6 1.5 6.1-0.3 6.1-0.3z"/>
			<path id="&lt;Path&gt;" class="s12" d="m692.1 111.9c-0.3 0-0.5-0.1-0.7-0.3-0.2-0.3-0.1-0.8 0.2-1 0.1-0.1 3-2.1 6.8-0.6 0.4 0.2 0.6 0.6 0.4 1-0.2 0.4-0.6 0.6-1 0.4-3-1.2-5.3 0.4-5.3 0.4q-0.2 0.1-0.4 0.1z"/>
			<path id="&lt;Path&gt;" class="s10" d="m738.2 123.4c1.4 14.6-0.6 28.6 2.6 41.2 0 0-3.6 11.8-25.1 11.8-23.6 0-10.8-11.8-10.8-11.8 13-3 13-12.6 11.2-21.6z"/>
			<path id="&lt;Path&gt;" class="s12" d="m745.4 168.7c1.8-3.7 3-9-0.8-10.3-4.1-1.5-26.5-2-34.6 0.8-8.1 2.7-6.1 10.2-6.1 10.2z"/>
			<path id="&lt;Compound Path&gt;" fill-rule="evenodd" class="s8" d="m790.2 695.3q-1.1-0.6-1.4-1.9c-0.1-0.7 0.2-1.1 0.5-1.3 1.6-1.4 7.8 0.7 8.5 0.9 0.2 0 0.3 0.2 0.3 0.4 0 0.1-0.1 0.3-0.3 0.3-1.1 0.6-2.6 1.3-4.2 1.7-1.3 0.3-2.5 0.4-3.4-0.1zm-0.4-2.6c-0.1 0.1-0.2 0.2-0.1 0.5q0.1 1 0.8 1.4c1.1 0.5 3.3 0.1 6.1-1.1-2.5-0.8-6-1.5-6.8-0.8z"/>
			<path id="&lt;Compound Path&gt;" fill-rule="evenodd" class="s8" d="m797.6 693.8c-2-0.6-6.2-3.4-6.3-5.4 0-0.4 0.1-1 1-1.3q0.9-0.4 1.8 0.1c2.3 1.1 3.9 5.9 4 6.1q0 0.2-0.1 0.4-0.1 0-0.2 0.1-0.1 0-0.2 0zm-5-6c-0.5 0.2-0.5 0.5-0.5 0.6 0 1.1 2.8 3.4 4.9 4.3-0.5-1.4-1.8-4.1-3.2-4.8q-0.6-0.2-1-0.1-0.1 0-0.2 0z"/>
			<path id="&lt;Compound Path&gt;" fill-rule="evenodd" class="s8" d="m681 706.7q-0.9-0.8-0.8-2.1c0-0.7 0.4-1.1 0.7-1.2 1.9-1 7.5 2.4 8.1 2.8 0.1 0.1 0.2 0.3 0.2 0.4-0.1 0.2-0.2 0.3-0.3 0.4-1.2 0.3-3 0.6-4.5 0.6-1.4 0-2.6-0.2-3.4-0.9zm0.3-2.6c-0.2 0.1-0.3 0.2-0.3 0.5q-0.1 1 0.6 1.5c0.9 0.8 3.2 0.9 6.1 0.3-2.3-1.3-5.5-2.8-6.4-2.3z"/>
			<path id="&lt;Compound Path&gt;" fill-rule="evenodd" class="s8" d="m688.6 706.9c-1.8-0.9-5.3-4.7-4.9-6.6 0.1-0.4 0.3-1 1.3-1.1q1-0.1 1.7 0.5c2 1.7 2.5 6.6 2.5 6.8 0 0.2-0.1 0.3-0.2 0.4q-0.1 0.1-0.2 0.1-0.1 0-0.2-0.1zm-3.5-6.9c-0.5 0.1-0.6 0.3-0.6 0.4-0.2 1.2 2 4 3.8 5.4-0.2-1.5-0.8-4.4-2.1-5.5q-0.4-0.3-0.9-0.3-0.1 0-0.2 0z"/>
			<path id="&lt;Path&gt;" class="s10" d="m707.3 706.4h-15.8l-0.1-36.6h15.8z"/>
			<path id="&lt;Path&gt;" class="s10" d="m817.3 692.8l-15.2 2.8-10.9-36 15.2-2.7z"/>
			<path id="&lt;Path&gt;" class="s12" d="m799.2 691.6l17.3-4.1c0.6-0.2 1.3 0.2 1.5 0.7l5.7 13.1c0.6 1.4-0.2 3-1.7 3.3-6 1.3-9 1.6-16.6 3.4-4.7 1.1-14.2 3.9-20.6 5.4-6.3 1.5-8.6-4.7-6.1-5.9 11.4-5.4 15.1-10.1 18.2-14.4 0.6-0.8 1.4-1.3 2.3-1.5z"/>
			<path id="&lt;Path&gt;" class="s12" d="m691.7 704.5h17.3c0.6 0 1.1 0.5 1.3 1.1l2.5 14c0.3 1.5-0.8 2.9-2.3 2.8-6.3-0.1-15.2-0.4-23-0.4-9.2 0-12.4 0.5-23.2 0.5-6.4 0-8-6.6-5.2-7.2 12.4-2.7 17.8-3 28.8-9.5 1.2-0.8 2.5-1.3 3.8-1.3z"/>
			<g id="&lt;Group&gt;">
				<path id="&lt;Path&gt;" class="s8" d="m776 168.7c14.7 10.4 19.2 37.1 19.2 37.1l-33.4 16.9c0 0-8.5-16.4-12.2-33.1-3.5-15.8 15.9-28.2 26.4-20.9z"/>
				<path id="&lt;Path&gt;" class="s11" d="m759.3 185.8l13.2 31.5-10.7 5.4c0 0-4.7-9-8.7-20.6z"/>
			</g>
			<path id="&lt;Path&gt;" class="s8" d="m677.8 238.1c0.1 17.6 1.2 39.5 3.8 66.7h84.4c1.1-12.4-4.1-70.9 8.5-129.4 0.9-4.4-2-8.6-6.4-9.3-5.4-0.8-12.8-1.8-20-2.1-10.7-0.5-26.3-0.9-35.9 0-5.1 0.4-10.2 1.3-14.3 2.1-7.3 1.4-13 6.8-14.9 13.9-1.8 6.7-3.7 17.1-4.6 32.9-0.4 7.2-0.7 15.5-0.6 25.2z"/>
			<path id="&lt;Path&gt;" class="s11" d="m704.4 204.9c-5.6 4.1-16.2 6-26 6.8q0.3-3.8 0.6-7.3 4-2 7.5-3.8z"/>
			<g id="&lt;Group&gt;" style="opacity: .2">
				<path id="&lt;Path&gt;" class="s14" d="m691.4 669.8l0.1 20.3h15.8l-0.1-20.3z"/>
				<path id="&lt;Path&gt;" class="s14" d="m806.4 656.9l-15.2 2.8 5.7 18.5 15.2-2.8z"/>
			</g>
			<path id="&lt;Path&gt;" class="s10" d="m736 106.4c2.3 15.6 4.4 24.5-1.6 34.3-9 14.8-29.2 12.5-36-1.9-6.2-12.9-9-36.2 4.6-46 13.3-9.7 30.7-1.9 33 13.6z"/>
			<path id="&lt;Path&gt;" class="s12" d="m703.7 117.8c-5.9-2.6-5.3-11.8-3.5-15.7-6.8 2.3-16.6 3.7-18.4-3.2-1.8-6.9 4.2-9.1 0.6-15-3.7-5.9 8-12.3 13.4-4.1 5.5 8.2 18.9 4.6 27.6-3.4 6.3-5.7 15.5 1.7 11.9 9.3 0 0 19-1.3 15.2 11.6-3.8 12.9-9.1 13.4-7.9 22.6 0.8 6.2 1.6 18.8-5.9 20.5-9 2.2-31.4-5.8-33-22.6z"/>
			<path id="&lt;Path&gt;" class="s11" d="m703.6 134.6q-2.6 1.9-5.4 4 0.1 0.1 0.1 0.2c1.9 3.9 4.8 7 8.2 9 1.2-1.1 1.8-4.8 3.9-4.7 6.4 0.2 18.6-2.5 20.7-9.7z"/>
			<path id="&lt;Path&gt;" class="s10" d="m708.5 117.6c0.4 4-0.3 7.7-1.5 10.1-1.8 3.7-4.7 1.3-5.8-3.2-1-4-1.2-10.8 1.4-12.8 2.5-1.9 5.4 1.3 5.9 5.9z"/>
			<g id="&lt;Group&gt;">
				<path id="&lt;Path&gt;" class="s8" d="m711.5 304.8c0 0 13.3 120.6 21.4 165.8 8.8 49.5 54.7 204.9 54.7 204.9l28.3-6c0 0-31.6-145.4-35.8-194.4-4.6-53.2-14.1-170.3-14.1-170.3z"/>
				<path id="&lt;Path&gt;" class="s15" d="m711.5 304.8c0 0 13.3 120.6 21.4 165.8 8.8 49.5 54.7 204.9 54.7 204.9l28.3-6c0 0-31.6-145.4-35.8-194.4-4.4-50.5-4.4-50.4-14.1-170.3z"/>
			</g>
			<path id="&lt;Path&gt;" class="s12" d="m781.3 666c-0.1 0 4.8 10.3 4.8 10.3l31.8-6.8-2.2-9.6z"/>
			<path id="&lt;Path&gt;" class="s11" d="m721.2 347.8c20.6 4.1 15.4 81.3 11.4 121-4.9-28-11.6-82.1-16.1-120.4 1.4-0.7 3-1 4.7-0.6z"/>
			<g id="&lt;Group&gt;">
				<path id="&lt;Path&gt;" class="s8" d="m681.6 304.8c0 0-6.7 118-6.9 166.2-0.1 50.1 11 214 11 214h26.8c0 0 7.2-161 10.3-210.2 3.3-53.6 14.3-170 14.3-170z"/>
				<path id="&lt;Path&gt;" class="s15" d="m681.6 304.8c0 0-6.7 118-6.9 166.2-0.1 50.1 11 214 11 214h26.8c0 0 7.2-161 10.3-210.2 3.3-53.6 14.3-170 14.3-170z"/>
			</g>
			<path id="&lt;Path&gt;" class="s12" d="m681 674.4c-0.1 0 1.1 11.1 1.1 11.1h32.5l1.3-10z"/>
			<g id="&lt;Group&gt;">
				<path id="&lt;Path&gt;" class="s10" d="m715 193.5c-3.2 0.3-5.9 0.5-8.8 0.5q-4.3 0.2-8.6 0.2c-5.8-0.1-11.5-0.4-17.3-1-5.8-0.7-11.6-1.6-17.5-3-5.9-1.5-11.8-3.4-17.6-6.3l-0.7-0.3c-5.2-2.6-7.3-8.8-4.8-14 0.3-0.6 0.7-1.1 1-1.6 2.8-3.7 5.4-6.3 8.1-8.7 2.7-2.4 5.4-4.5 8.1-6.6 5.5-4.1 11-7.7 16.6-11.2q8.4-5.2 17-9.9c5.8-3.1 11.6-6.1 17.6-8.9 2.9-1.4 6.5-0.1 7.9 2.9 1.2 2.6 0.4 5.5-1.8 7.2l-0.1 0.1c-5 3.8-10.2 7.6-15.2 11.6-5.1 3.8-10.1 7.7-15 11.7-4.9 3.9-9.7 8-14.2 12-2.3 2.1-4.5 4.1-6.4 6.2-1.9 2-3.8 4.2-4.7 5.8l-4.5-16c4.1 1.6 8.7 2.8 13.5 3.6 4.8 0.9 9.8 1.4 14.8 1.7q7.6 0.5 15.3 0.5 3.9 0.1 7.7 0c2.6-0.1 5.3-0.2 7.5-0.4h0.3c6.6-0.3 12.3 4.7 12.6 11.3 0.4 6.4-4.4 12-10.8 12.6z"/>
			</g>
			<path id="&lt;Path&gt;" class="s10" d="m726.2 119.4l-10 2.3c0 0-13.4-1.7-16.4 8.4l7.9 6.7 12.2 2c2 0.3 3.9 0 5.7-0.9l3.1-1.7c1.4-0.7 2.4-2.1 2.6-3.7l0.7-8c0.3-3.2-2.6-5.7-5.8-5.1z"/>
			<path id="&lt;Path&gt;" class="s8" d="m706.7 205.2c-16.8 4.6-36-1.2-36-1.2l7.1-37.7c0 0 16.7-1.4 27.1-1.7 26.9-0.5 32.1 32.2 1.8 40.6z"/>
		</g>
	</g>
</svg>